<?xml version="1.0" encoding="UTF-8"?>
<svg id="Layer_1" xmlns="http://www.w3.org/2000/svg" xmlns:xlink="http://www.w3.org/1999/xlink" version="1.1" viewBox="0 0 500 500">
  <!-- Generator: Adobe Illustrator 29.6.1, SVG Export Plug-In . SVG Version: 2.1.1 Build 9)  -->
  <defs>
    <style>
      .st0 {
        fill: none;
      }

      .st1 {
        mask: url(#mask);
      }

      .st2 {
        isolation: isolate;
      }

      .st3 {
        fill: #378ce7;
      }

      .st4 {
        fill: #09467e;
      }

      .st5 {
        clip-path: url(#clippath);
      }
    </style>
    <clipPath id="clippath">
      <rect class="st0" x="139.1" y="96" width="194.5" height="195"/>
    </clipPath>
    <mask id="mask" x="139.1" y="96" width="195" height="195" maskUnits="userSpaceOnUse">
      <g id="ba3eceeca8">
        <image class="st2" width="500" height="500" transform="translate(139.1 96) scale(.4)" xlink:href="Epineon-1.png"/>
      </g>
    </mask>
  </defs>
  <g id="_x35_2630fd1c8">
    <g class="st5">
      <g class="st1">
        <image class="st2" width="500" height="500" transform="translate(139.1 96) scale(.4)" xlink:href="Epineon-2.png"/>
      </g>
    </g>
    <path class="st3" d="M321.3,197.4c.9,0,2.9-.1,6-.1h4.7s5,11,5,11c3.6,7.9,5.5,12.2,5.7,12.8.5,1.3.8,2,.8,2,0,0,.1-4.3.1-12.8v-12.9h6.8v31.5c-1.3,0-3.3,0-6,0-2.7,0-4.6,0-6,0l-1.3-2.7c-6.1-13.4-9.3-20.5-9.6-21.5l-.6-1.6v25.9h-7v-31.3h1.3Z"/>
    <path class="st3" d="M355.1,203.1v-5.6h24.3v5.6h-10.2c-1,0-2.4,0-4.1,0-1.8,0-3,0-3.6,0s-1.8,0-2.8,0c-1,0-1.5,0-1.6,0h-1.9ZM355.3,210c0,0,3.8,0,11.4,0h11.3v5.3c-1.8,0-4.4,0-7.9,0s-6.1,0-7.9,0c0,.8,0,2.1,0,3.7,0,1.6,0,2.9,0,3.7,1.9,0,4.8,0,8.6,0,3.8,0,6.7,0,8.6,0v5.5h-24.4v-9.1c0-6.1,0-9.2.1-9.2Z"/>
    <path class="st3" d="M396.4,196.9c.9-.2,1.6-.3,2.1-.3h.9v2.8c0,1.9,0,2.9-.2,3-.4.1-1,.3-1.8.5-2.6.7-4.3,2.6-5.1,5.6-.3,1-.4,2.5-.4,4.6s0,3.1.3,4c.8,3.6,2.9,5.7,6.5,6.3h.8v6h-1.4c-3.8-.5-6.9-1.9-9.3-4.4-1.4-1.4-2.5-3-3.1-4.8-.7-1.8-1-3.9-1.2-6.5,0-.1,0-.3,0-.6,0-.3,0-.5,0-.6,0-4.3,1-7.8,3.1-10.4,2.1-2.7,5.1-4.4,8.9-5.3ZM401.9,199.4v-2.8h1.1c.7,0,1.7.1,3,.4,3.1.7,5.6,2.2,7.5,4.4,1.9,2.2,3.2,4.9,3.7,8.2.2.9.2,2,.2,3.1,0,2.4-.2,4.4-.6,6-.9,3.1-2.5,5.6-4.9,7.4-2.3,1.9-5.1,2.9-8.4,3.2h-1.6c0,.1,0-5.8,0-5.8h1.1c2.4-.5,4.2-1.5,5.3-3.1,1.1-1.7,1.7-4.1,1.7-7.4,0-6.3-2.1-9.7-6.3-10.4-.1,0-.3,0-.5,0-.2,0-.3,0-.4,0,0,0-.2,0-.3,0-.1,0-.2,0-.3-.1,0,0,0,0-.2-.1,0,0-.1-.1-.1-.2,0,0,0-.1,0-.2,0,0,0-.2,0-.3,0-.1,0-.3,0-.4v-1.7Z"/>
    <path class="st3" d="M423.3,197.4c.9,0,2.9-.1,6-.1h4.7s5,11,5,11c3.6,7.9,5.5,12.2,5.7,12.8.5,1.3.8,2,.8,2,0,0,.1-4.3.1-12.8v-12.9h6.8v31.5c-1.3,0-3.3,0-6,0-2.7,0-4.6,0-6,0l-1.3-2.7c-6.1-13.4-9.3-20.5-9.6-21.5l-.6-1.6v25.9h-7v-31.3h1.3Z"/>
    <path class="st4" d="M164.1,255.2v-14.4h4.1c2.2,0,3.7,0,4.3,0,.6,0,1.2.2,1.6.4.3.2.6.4.9.7.3.3.6.6.7.9.3.7.5,1.6.5,2.6s0,1-.1,1.4c-.4,1.8-1.6,2.9-3.4,3.2-.3,0-.5,0-.7,0s0,0,0,0h0c0,0,0-.5,0-1.4v-1.3s.4-.4.4-.4c.4-.4.6-.9.6-1.5s0-.3,0-.4c0-.4-.1-.8-.3-1-.2-.3-.4-.4-.8-.6-.2,0-1-.1-2.4-.1h-2v3.3c0,.3,0,.8,0,1.5,0,.7,0,1.3,0,1.6s0,.9,0,1.5v3.8h-3.3Z"/>
    <path class="st4" d="M178.5,242.2v-1.3h4.2c2.3,0,3.7,0,4.3,0,.6,0,1.2.2,1.8.5,1.3.6,2,1.6,2,3.1v.2c0,0,0,.1,0,.2,0,.8-.2,1.4-.6,2.1-.4.7-1,1.2-1.8,1.4-.3.1-.5.2-.5.3s0,0,.1,0,.2,0,.5.2c.3.1.5.2.5.2h0s.2,0,.5.4c.5.5.8,1.2.8,2.1s0,1,0,1.8c0,.8.1,1.3.2,1.5v.3c0,0-1.5,0-1.5,0-.8,0-1.3,0-1.4,0-.2,0-.3,0-.3-.2-.1-.2-.2-.8-.2-1.8,0-1.2-.1-1.9-.2-2.1,0-.2-.2-.5-.3-.7-.3-.3-.6-.5-.9-.6-.3,0-1-.1-2-.1h-1.9s0,5.5,0,5.5h-.6c-.3,0-.9,0-1.6,0h-1.1c0,0,0-7.9,0-7.9h3.8c1.8,0,2.8,0,3.3,0,.4,0,.7,0,.9-.2.5-.3.8-.7.9-1.4,0-.2,0-.4,0-.5,0-.8-.3-1.4-.9-1.7-.2,0-.5-.2-.9-.2-.4,0-1.4,0-3.1,0h-3c-.2,0-.4,0-.6,0h-.2c0,0-.1,0-.2-.2,0-.1,0-.5,0-1.1Z"/>
    <path class="st4" d="M193,243.4v-2.6h11.1v2.6h-4.7c-.5,0-1.1,0-1.9,0h-2.9c-.4,0-.7,0-.7,0h-.9ZM193.1,246.6s1.8,0,5.3,0h5.2v2.4c-.8,0-2,0-3.6,0s-2.8,0-3.6,0c0,.4,0,1,0,1.7,0,.8,0,1.3,0,1.7.9,0,2.2,0,3.9,0,1.8,0,3.1,0,4,0v2.5h-11.2v-4.1c0-2.8,0-4.2,0-4.2Z"/>
    <path class="st4" d="M212.1,240c.5,0,1.2-.1,2.1-.1s1.4,0,1.7,0c2.9.4,4.6,2,5.1,4.7.1.6.2.9.2,1,0,.1,0,.2-.2.3-.1,0-.3,0-.7,0h-2.5v-.2c0-.2,0-.5-.2-.9-.1-.4-.4-.8-.7-1.1-.3-.4-.7-.6-1.1-.8-.4-.2-1.1-.3-2-.3s-.8,0-1.1.1c-1,.2-1.8.7-2.3,1.5-.5.8-.7,1.9-.7,3.3s0,1.8.3,2.4c.2.6.5,1.1.9,1.5.7.6,1.6.9,2.9.9s.6,0,1,0c.9-.1,1.6-.4,2.1-.9.5-.5.8-1.2,1-2.2v-.4h3.5v.5c-.4,2.5-1.4,4.1-3.1,5-.6.3-1.3.5-1.9.6-.6,0-1.4.1-2.5.1s-1.4,0-1.6,0c-.3,0-.6-.1-1-.2-1.6-.5-2.8-1.4-3.6-2.6-.8-1.3-1.3-2.8-1.3-4.6v-.3c0-.1,0-.2,0-.3,0-1,.1-1.7.3-2.1.4-1.3,1-2.4,2-3.2.9-.8,2.1-1.4,3.4-1.7Z"/>
    <path class="st4" d="M223.6,243.2v-2.6c1,0,2.4,0,4.4,0,1.9,0,3.4,0,4.4,0v2.5h-1.3s-1.4,0-1.4,0v9.1h1.4s1.3,0,1.3,0v1.1s0,.3,0,.3c0,.5,0,.8,0,1v.2h-8.7v-1.3s0-1.3,0-1.3h1.3s1.3,0,1.3,0v-9.2h-2.7Z"/>
    <path class="st4" d="M239.9,240.5c0,0,.3,0,.6,0,1.2,0,2.1,0,2.7.2.8.2,1.6.5,2.2,1,.6.4,1.1,1,1.4,1.6.3.7.5,1.3.5,1.7s0,.1,0,.1c0,0-.6,0-1.6,0h-1.5s-.1-.5-.1-.5c-.2-.6-.6-1.1-1.2-1.4-.2-.1-.4-.2-.6-.2-.2,0-.6,0-1.1,0s-.9,0-1.1,0c-.2,0-.4,0-.6.2-.6.3-.9.8-.9,1.5s.2,1,.6,1.3c.4.2,1.3.4,2.7.6,1.6.2,2.9.5,3.6.8.8.3,1.4.9,1.8,1.8.1.3.2.5.2.7,0,.2,0,.6,0,1.1s0,1.4-.2,1.8c-.1.4-.4.8-.9,1.3-.5.5-1,.8-1.6,1-.6.2-1.4.4-2.3.5-.4,0-.7,0-.9,0-1.1,0-2,0-2.8-.3-1.1-.3-2-.8-2.7-1.6s-1.1-1.7-1.2-2.7v-.5c.3,0,.8,0,1.5,0,.7,0,1.2,0,1.6,0v.5c.2.4.3.6.4.8.1.2.3.5.6.7.3.2.6.4.9.5.4.1.9.2,1.6.2s1.2,0,1.6-.2c.3,0,.5-.3.8-.5.2-.2.4-.4.4-.7,0-.1,0-.3,0-.4,0-.5,0-.9-.3-1.1-.2-.3-.5-.5-.9-.6-.4-.1-1.2-.3-2.4-.4-1.4-.2-2.3-.3-2.8-.5-.3,0-.7-.3-1.1-.5-.4-.3-.7-.5-.9-.7-.6-.7-.8-1.6-.8-2.7s0-.5,0-.6c.2-1.1.7-1.9,1.5-2.5.8-.6,1.9-1,3.4-1.2Z"/>
    <path class="st4" d="M249.5,243.2v-2.6c1,0,2.4,0,4.4,0,1.9,0,3.4,0,4.4,0v2.5h-1.3s-1.4,0-1.4,0v9.1h1.4s1.3,0,1.3,0v1.1s0,.3,0,.3c0,.5,0,.8,0,1v.2h-8.7v-1.3s0-1.3,0-1.3h1.3s1.3,0,1.3,0v-9.2h-2.7Z"/>
    <path class="st4" d="M266,240.6c.4,0,.7-.1,1-.1h.4v1.3c0,.9,0,1.3-.1,1.4-.2,0-.4.1-.8.2-1.2.3-2,1.2-2.3,2.6-.1.4-.2,1.1-.2,2.1s0,1.4.1,1.9c.3,1.7,1.3,2.6,3,2.9h.4v2.8h-.6c-1.7-.2-3.1-.9-4.3-2-.6-.7-1.1-1.4-1.4-2.2-.3-.8-.5-1.8-.5-3,0,0,0-.1,0-.3v-.3c0-2,.5-3.6,1.4-4.8,1-1.2,2.3-2,4.1-2.4ZM268.5,241.7v-1.3h.5c.3,0,.8,0,1.4.2,1.4.3,2.6,1,3.5,2,.9,1,1.4,2.2,1.7,3.8,0,.4.1.9.1,1.4,0,1.1,0,2-.3,2.8-.4,1.4-1.1,2.6-2.2,3.4-1.1.9-2.4,1.4-3.9,1.5h-.7c0,0,0-2.7,0-2.7h.5c1.1-.2,1.9-.7,2.4-1.4.5-.8.8-1.9.8-3.4,0-2.9-1-4.4-2.9-4.8,0,0-.2,0-.3,0,0,0-.1,0-.2,0,0,0,0,0-.1,0,0,0,0,0-.1,0,0,0,0,0,0,0,0,0,0,0,0,0,0,0,0,0,0,0,0,0,0,0,0-.2v-1Z"/>
    <path class="st4" d="M278.3,240.8c.4,0,1.3,0,2.8,0h2.2s2.3,5,2.3,5c1.6,3.6,2.5,5.6,2.6,5.9.2.6.4.9.4.9,0,0,0-2,0-5.9v-5.9h3.1v14.4c-.6,0-1.5,0-2.7,0-1.2,0-2.1,0-2.7,0l-.6-1.3c-2.8-6.1-4.3-9.4-4.4-9.9l-.3-.7v11.9h-3.2v-14.3h.6Z"/>
    <path class="st4" d="M292.7,254"/>
    <path class="st4" d="M299.1,254.9v-14.3h3.4v11.7h6.8v1.3c0,.9,0,1.3-.1,1.4,0,0-.7,0-2,0s-2.3,0-3.1,0h-5Z"/>
    <path class="st4" d="M311.5,243.2v-2.6c1,0,2.4,0,4.4,0,1.9,0,3.4,0,4.4,0v2.5h-1.3s-1.4,0-1.4,0v9.1h1.4s1.3,0,1.3,0v1.1s0,.3,0,.3c0,.5,0,.8,0,1v.2h-8.7v-1.3s0-1.3,0-1.3h1.3s1.3,0,1.3,0v-9.2h-2.7Z"/>
    <path class="st4" d="M322.4,255.1v-14.4h11.3v2.6h-8v3.4c.8,0,2,0,3.6,0,1.6,0,2.8,0,3.6,0,0,.3,0,.7,0,1.2,0,.5,0,1,0,1.2h-7.3v5.9h-3.3Z"/>
    <path class="st4" d="M335.9,243.4v-2.6h11.1v2.6h-4.7c-.5,0-1.1,0-1.9,0h-2.9c-.4,0-.7,0-.7,0h-.9ZM336,246.6s1.8,0,5.3,0h5.2v2.4c-.8,0-2,0-3.6,0s-2.8,0-3.6,0c0,.4,0,1,0,1.7,0,.8,0,1.3,0,1.7.9,0,2.2,0,3.9,0,1.8,0,3.1,0,4,0v2.5h-11.2v-4.1c0-2.8,0-4.2,0-4.2Z"/>
    <path class="st4" d="M348.2,254"/>
    <path class="st4" d="M359.8,240.5c0,0,.3,0,.6,0,1.2,0,2.1,0,2.7.2.8.2,1.6.5,2.2,1,.6.4,1.1,1,1.4,1.6.3.7.5,1.3.5,1.7s0,.1,0,.1c0,0-.6,0-1.6,0h-1.5s-.1-.5-.1-.5c-.2-.6-.6-1.1-1.2-1.4-.2-.1-.4-.2-.6-.2-.2,0-.6,0-1.1,0s-.9,0-1.1,0c-.2,0-.4,0-.6.2-.6.3-.9.8-.9,1.5s.2,1,.6,1.3c.4.2,1.3.4,2.7.6,1.6.2,2.9.5,3.6.8.8.3,1.4.9,1.8,1.8.1.3.2.5.2.7,0,.2,0,.6,0,1.1s0,1.4-.2,1.8c-.1.4-.4.8-.9,1.3-.5.5-1,.8-1.6,1-.6.2-1.4.4-2.3.5-.4,0-.7,0-.9,0-1.1,0-2,0-2.8-.3-1.1-.3-2-.8-2.7-1.6s-1.1-1.7-1.2-2.7v-.5c.3,0,.8,0,1.5,0,.7,0,1.2,0,1.6,0v.5c.2.4.3.6.4.8.1.2.3.5.6.7.3.2.6.4.9.5.4.1.9.2,1.6.2s1.2,0,1.6-.2c.3,0,.5-.3.8-.5.2-.2.4-.4.4-.7,0-.1,0-.3,0-.4,0-.5,0-.9-.3-1.1-.2-.3-.5-.5-.9-.6-.4-.1-1.2-.3-2.4-.4-1.4-.2-2.3-.3-2.8-.5-.3,0-.7-.3-1.1-.5-.4-.3-.7-.5-.9-.7-.6-.7-.8-1.6-.8-2.7s0-.5,0-.6c.2-1.1.7-1.9,1.5-2.5.8-.6,1.9-1,3.4-1.2Z"/>
    <path class="st4" d="M375.1,240c.5,0,1.2-.1,2.1-.1s1.4,0,1.7,0c2.9.4,4.6,2,5.1,4.7.1.6.2.9.2,1,0,.1,0,.2-.2.3-.1,0-.3,0-.7,0h-2.5v-.2c0-.2,0-.5-.2-.9-.1-.4-.4-.8-.7-1.1-.3-.4-.7-.6-1.1-.8-.4-.2-1.1-.3-2-.3s-.8,0-1.1.1c-1,.2-1.8.7-2.3,1.5-.5.8-.7,1.9-.7,3.3s0,1.8.3,2.4c.2.6.5,1.1.9,1.5.7.6,1.6.9,2.9.9s.6,0,1,0c.9-.1,1.6-.4,2.1-.9.5-.5.8-1.2,1-2.2v-.4h3.5v.5c-.4,2.5-1.4,4.1-3.1,5-.6.3-1.3.5-1.9.6-.6,0-1.4.1-2.5.1s-1.4,0-1.6,0c-.3,0-.6-.1-1-.2-1.6-.5-2.8-1.4-3.6-2.6-.8-1.3-1.3-2.8-1.3-4.6v-.3c0-.1,0-.2,0-.3,0-1,.1-1.7.3-2.1.4-1.3,1-2.4,2-3.2.9-.8,2.1-1.4,3.4-1.7Z"/>
    <path class="st4" d="M386.7,243.2v-2.6c1,0,2.4,0,4.4,0,1.9,0,3.4,0,4.4,0v2.5h-1.3s-1.4,0-1.4,0v9.1h1.4s1.3,0,1.3,0v1.1s0,.3,0,.3c0,.5,0,.8,0,1v.2h-8.7v-1.3s0-1.3,0-1.3h1.3s1.3,0,1.3,0v-9.2h-2.7Z"/>
    <path class="st4" d="M397.6,243.4v-2.6h11.1v2.6h-4.7c-.5,0-1.1,0-1.9,0h-2.9c-.4,0-.7,0-.7,0h-.9ZM397.7,246.6s1.8,0,5.3,0h5.2v2.4c-.8,0-2,0-3.6,0s-2.8,0-3.6,0c0,.4,0,1,0,1.7,0,.8,0,1.3,0,1.7.9,0,2.2,0,3.9,0,1.8,0,3.1,0,4,0v2.5h-11.2v-4.1c0-2.8,0-4.2,0-4.2Z"/>
    <path class="st4" d="M411.5,240.8c.4,0,1.3,0,2.8,0h2.2s2.3,5,2.3,5c1.6,3.6,2.5,5.6,2.6,5.9.2.6.4.9.4.9,0,0,0-2,0-5.9v-5.9h3.1v14.4c-.6,0-1.5,0-2.7,0-1.2,0-2.1,0-2.7,0l-.6-1.3c-2.8-6.1-4.3-9.4-4.4-9.9l-.3-.7v11.9h-3.2v-14.3h.6Z"/>
    <path class="st4" d="M432.7,240c.5,0,1.2-.1,2.1-.1s1.4,0,1.7,0c2.9.4,4.6,2,5.1,4.7.1.6.2.9.2,1,0,.1,0,.2-.2.3-.1,0-.3,0-.7,0h-2.5v-.2c0-.2,0-.5-.2-.9-.1-.4-.4-.8-.7-1.1-.3-.4-.7-.6-1.1-.8-.4-.2-1.1-.3-2-.3s-.8,0-1.1.1c-1,.2-1.8.7-2.3,1.5-.5.8-.7,1.9-.7,3.3s0,1.8.3,2.4c.2.6.5,1.1.9,1.5.7.6,1.6.9,2.9.9s.6,0,1,0c.9-.1,1.6-.4,2.1-.9.5-.5.8-1.2,1-2.2v-.4h3.5v.5c-.4,2.5-1.4,4.1-3.1,5-.6.3-1.3.5-1.9.6-.6,0-1.4.1-2.5.1s-1.4,0-1.6,0c-.3,0-.6-.1-1-.2-1.6-.5-2.8-1.4-3.6-2.6-.8-1.3-1.3-2.8-1.3-4.6v-.3c0-.1,0-.2,0-.3,0-1,.1-1.7.3-2.1.4-1.3,1-2.4,2-3.2.9-.8,2.1-1.4,3.4-1.7Z"/>
    <path class="st4" d="M444.3,243.4v-2.6h11.1v2.6h-4.7c-.5,0-1.1,0-1.9,0h-2.9c-.4,0-.7,0-.7,0h-.9ZM444.3,246.6s1.8,0,5.3,0h5.2v2.4c-.8,0-2,0-3.6,0s-2.8,0-3.6,0c0,.4,0,1,0,1.7,0,.8,0,1.3,0,1.7.9,0,2.2,0,3.9,0,1.8,0,3.1,0,4,0v2.5h-11.2v-4.1c0-2.8,0-4.2,0-4.2Z"/>
    <path class="st4" d="M456.6,254"/>
  </g>
</svg>